<svg xmlns="http://www.w3.org/2000/svg" viewBox="0 0 512 512" role="img" aria-labelledby="title desc">
  <title id="title">CareerForge AI Resume Builder</title>
  <desc id="desc">Illustration of an intelligent resume workspace representing the CareerForge platform.</desc>
  <defs>
    <radialGradient id="careerforgeGlow" cx="50%" cy="40%" r="70%">
      <stop offset="0%" stop-color="#22d3ee" stop-opacity="0.35" />
      <stop offset="55%" stop-color="#312e81" stop-opacity="0.65" />
      <stop offset="100%" stop-color="#0f172a" />
    </radialGradient>
    <linearGradient id="careerforgeSheet" x1="0" y1="0" x2="1" y2="1">
      <stop offset="0%" stop-color="#f8fafc" />
      <stop offset="100%" stop-color="#e2e8f0" />
    </linearGradient>
    <linearGradient id="careerforgeAccent" x1="0" y1="0" x2="1" y2="1">
      <stop offset="0%" stop-color="#22d3ee" />
      <stop offset="100%" stop-color="#7c3aed" />
    </linearGradient>
  </defs>
  <rect width="512" height="512" rx="40" fill="url(#careerforgeGlow)" />
  <g transform="translate(76 90)">
    <rect width="360" height="332" rx="32" fill="url(#careerforgeSheet)" />
    <rect x="24" y="56" width="312" height="10" rx="5" fill="#cbd5f5" />
    <rect x="24" y="88" width="248" height="10" rx="5" fill="#dbeafe" />
    <rect x="24" y="120" width="278" height="10" rx="5" fill="#dbeafe" />
    <rect x="24" y="152" width="192" height="10" rx="5" fill="#cbd5f5" />
    <rect x="24" y="220" width="312" height="74" rx="20" fill="rgba(124, 58, 237, 0.12)" />
    <circle cx="68" cy="24" r="24" fill="#0f172a" opacity="0.85" />
    <rect x="112" y="14" width="120" height="20" rx="10" fill="#7c3aed" opacity="0.45" />
    <rect x="112" y="214" width="180" height="18" rx="9" fill="#7c3aed" opacity="0.6" />
    <rect x="112" y="244" width="160" height="16" rx="8" fill="#22d3ee" opacity="0.6" />
    <rect x="112" y="272" width="140" height="16" rx="8" fill="#f97316" opacity="0.6" />
  </g>
  <g transform="translate(320 110)">
    <circle cx="70" cy="70" r="60" fill="rgba(34, 211, 238, 0.12)" stroke="url(#careerforgeAccent)" stroke-width="4" />
    <path
      d="M70 28l12 24 26 4-19 18 4 26-23-12-23 12 4-26-19-18 26-4z"
      fill="url(#careerforgeAccent)"
      opacity="0.8"
    />
    <circle cx="70" cy="70" r="12" fill="#0f172a" opacity="0.85" />
  </g>
  <g transform="translate(140 360)">
    <rect width="232" height="70" rx="26" fill="rgba(15, 23, 42, 0.68)" />
    <rect x="18" y="20" width="96" height="32" rx="16" fill="url(#careerforgeAccent)" />
    <rect x="132" y="26" width="72" height="20" rx="10" fill="#22d3ee" opacity="0.65" />
  </g>
</svg>
