<svg xmlns="http://www.w3.org/2000/svg" viewBox="0 0 512 512" role="img" aria-labelledby="title desc">
  <title id="title">AI Chat-Bot Scheduler</title>
  <desc id="desc">Illustration of a chat interface with calendar integration representing the AI medical assistant.</desc>
  <defs>
    <linearGradient id="chatbotBg" x1="0" y1="0" x2="1" y2="1">
      <stop offset="0%" stop-color="#082f49" />
      <stop offset="100%" stop-color="#22d3ee" />
    </linearGradient>
    <linearGradient id="chatbotPanel" x1="0" y1="0" x2="1" y2="1">
      <stop offset="0%" stop-color="#0f172a" />
      <stop offset="100%" stop-color="#111827" />
    </linearGradient>
  </defs>
  <rect width="512" height="512" rx="40" fill="url(#chatbotBg)" />
  <g transform="translate(72 104)">
    <rect width="368" height="260" rx="28" fill="url(#chatbotPanel)" />
    <g transform="translate(30 36)">
      <rect width="220" height="72" rx="24" fill="rgba(34, 211, 238, 0.35)" />
      <rect x="14" y="18" width="176" height="12" rx="6" fill="#22d3ee" />
      <rect x="14" y="40" width="144" height="12" rx="6" fill="#7c3aed" opacity="0.8" />
      <circle cx="28" cy="16" r="12" fill="#22d3ee" />
    </g>
    <g transform="translate(86 124)">
      <rect width="256" height="68" rx="24" fill="rgba(124, 58, 237, 0.32)" />
      <rect x="18" y="18" width="196" height="10" rx="5" fill="#c4d4ff" />
      <rect x="18" y="38" width="168" height="10" rx="5" fill="#f4f4ff" opacity="0.8" />
      <circle cx="232" cy="34" r="14" fill="#22d3ee" />
    </g>
    <g transform="translate(38 206)">
      <rect width="160" height="54" rx="20" fill="rgba(100, 116, 139, 0.45)" />
      <rect x="18" y="18" width="120" height="8" rx="4" fill="#dbeafe" />
    </g>
    <g transform="translate(244 32)">
      <rect width="112" height="44" rx="14" fill="rgba(34, 211, 238, 0.3)" />
      <rect x="14" y="16" width="76" height="12" rx="6" fill="#22d3ee" opacity="0.8" />
    </g>
  </g>
  <g transform="translate(128 340)">
    <rect width="256" height="92" rx="30" fill="rgba(15, 23, 42, 0.72)" />
    <rect x="24" y="24" width="104" height="20" rx="10" fill="#22d3ee" opacity="0.8" />
    <rect x="24" y="52" width="200" height="8" rx="4" fill="#38bdf8" opacity="0.7" />
    <rect x="142" y="20" width="90" height="56" rx="16" fill="rgba(34, 211, 238, 0.2)" stroke="#22d3ee" stroke-width="2" />
    <g transform="translate(152 32)">
      <rect width="70" height="12" rx="6" fill="#22d3ee" opacity="0.8" />
      <rect y="18" width="48" height="8" rx="4" fill="#7c3aed" opacity="0.8" />
    </g>
  </g>
  <g transform="translate(312 120)">
    <rect width="128" height="128" rx="28" fill="rgba(34, 211, 238, 0.18)" stroke="#22d3ee" stroke-width="3" />
    <g transform="translate(20 26)">
      <rect width="88" height="12" rx="6" fill="#22d3ee" />
      <rect y="22" width="88" height="66" rx="12" fill="rgba(15, 23, 42, 0.85)" />
      <g transform="translate(12 34)" fill="#38bdf8">
        <rect width="12" height="12" rx="4" />
        <rect x="24" width="12" height="12" rx="4" />
        <rect x="48" width="12" height="12" rx="4" />
        <rect x="36" y="18" width="12" height="12" rx="4" />
        <rect x="12" y="18" width="12" height="12" rx="4" />
      </g>
    </g>
  </g>
</svg>
