<svg xmlns="http://www.w3.org/2000/svg" viewBox="0 0 512 512" role="img" aria-labelledby="title desc">
  <title id="title">Codalyst AI Code Review</title>
  <desc id="desc">Illustration of an AI-assisted code review dashboard with metrics.</desc>
  <defs>
    <linearGradient id="codalystBg" x1="0" y1="0" x2="1" y2="1">
      <stop offset="0%" stop-color="#0f172a" />
      <stop offset="65%" stop-color="#1f2937" />
      <stop offset="100%" stop-color="#f97316" />
    </linearGradient>
    <linearGradient id="codalystPanel" x1="0" y1="0" x2="1" y2="1">
      <stop offset="0%" stop-color="#111827" />
      <stop offset="100%" stop-color="#1f2937" />
    </linearGradient>
    <linearGradient id="codalystAccent" x1="0" y1="0" x2="1" y2="1">
      <stop offset="0%" stop-color="#22d3ee" />
      <stop offset="100%" stop-color="#7c3aed" />
    </linearGradient>
  </defs>
  <rect width="512" height="512" rx="40" fill="url(#codalystBg)" />
  <g transform="translate(64 96)">
    <rect width="384" height="288" rx="28" fill="url(#codalystPanel)" />
    <rect x="24" y="28" width="70" height="12" rx="6" fill="#f97316" />
    <rect x="106" y="28" width="120" height="12" rx="6" fill="#22d3ee" />
    <rect x="24" y="64" width="336" height="180" rx="18" fill="rgba(15, 23, 42, 0.75)" />
    <rect x="40" y="88" width="150" height="14" rx="7" fill="#cbd5f5" />
    <rect x="40" y="118" width="120" height="10" rx="5" fill="#7c3aed" opacity="0.8" />
    <rect x="40" y="146" width="160" height="10" rx="5" fill="#22d3ee" opacity="0.75" />
    <rect x="40" y="174" width="130" height="10" rx="5" fill="#f97316" opacity="0.75" />
    <g transform="translate(220 92)">
      <rect width="120" height="96" rx="18" fill="rgba(34, 211, 238, 0.16)" />
      <polyline points="12,76 42,56 68,66 96,36" fill="none" stroke="url(#codalystAccent)" stroke-width="6" stroke-linecap="round" stroke-linejoin="round" />
      <circle cx="42" cy="56" r="6" fill="#22d3ee" />
      <circle cx="68" cy="66" r="6" fill="#7c3aed" />
      <circle cx="96" cy="36" r="6" fill="#f97316" />
    </g>
    <g transform="translate(40 206)">
      <rect width="64" height="24" rx="12" fill="#22d3ee" opacity="0.7" />
      <rect x="78" width="94" height="24" rx="12" fill="#7c3aed" opacity="0.6" />
      <rect x="184" width="92" height="24" rx="12" fill="#f97316" opacity="0.55" />
    </g>
  </g>
  <g transform="translate(132 380)">
    <rect width="248" height="76" rx="28" fill="rgba(15, 23, 42, 0.72)" />
    <rect x="24" y="26" width="84" height="24" rx="12" fill="url(#codalystAccent)" />
    <rect x="122" y="26" width="52" height="24" rx="12" fill="#22d3ee" opacity="0.65" />
    <rect x="186" y="26" width="38" height="24" rx="12" fill="#f97316" opacity="0.65" />
  </g>
</svg>
