<svg xmlns="http://www.w3.org/2000/svg" viewBox="0 0 512 512" role="img" aria-labelledby="title desc">
  <title id="title">DreamDo Task Manager</title>
  <desc id="desc">Glassmorphism inspired task list with stats and completion ring representing DreamDo.</desc>
  <defs>
    <linearGradient id="dreamdoBg" x1="0" y1="0" x2="1" y2="1">
      <stop offset="0%" stop-color="#0f172a" />
      <stop offset="100%" stop-color="#312e81" />
    </linearGradient>
    <radialGradient id="dreamdoGlow" cx="70%" cy="30%" r="60%">
      <stop offset="0%" stop-color="#22d3ee" stop-opacity="0.4" />
      <stop offset="100%" stop-color="transparent" />
    </radialGradient>
    <linearGradient id="dreamdoCard" x1="0" y1="0" x2="1" y2="1">
      <stop offset="0%" stop-color="rgba(248, 250, 252, 0.95)" />
      <stop offset="100%" stop-color="rgba(226, 232, 240, 0.8)" />
    </linearGradient>
  </defs>
  <rect width="512" height="512" rx="40" fill="url(#dreamdoBg)" />
  <circle cx="360" cy="120" r="96" fill="url(#dreamdoGlow)" />
  <g transform="translate(82 112)">
    <rect width="348" height="288" rx="32" fill="url(#dreamdoCard)" />
    <rect x="28" y="32" width="80" height="32" rx="16" fill="#7c3aed" opacity="0.8" />
    <rect x="120" y="32" width="120" height="32" rx="16" fill="#22d3ee" opacity="0.75" />
    <rect x="28" y="94" width="236" height="16" rx="8" fill="#94a3b8" />
    <rect x="28" y="124" width="208" height="16" rx="8" fill="#7c3aed" opacity="0.8" />
    <rect x="28" y="154" width="188" height="16" rx="8" fill="#22d3ee" opacity="0.75" />
    <rect x="28" y="184" width="164" height="16" rx="8" fill="#f97316" opacity="0.75" />
    <g transform="translate(254 80)">
      <circle cx="52" cy="52" r="48" fill="rgba(124, 58, 237, 0.18)" />
      <circle cx="52" cy="52" r="38" fill="none" stroke="#7c3aed" stroke-width="10" stroke-dasharray="150 60" stroke-linecap="round" />
      <text x="52" y="60" font-family="Arial, sans-serif" font-size="18" font-weight="700" text-anchor="middle" fill="#312e81">78%</text>
    </g>
    <g transform="translate(38 226)">
      <rect width="88" height="20" rx="10" fill="#94a3b8" opacity="0.7" />
      <rect x="108" width="108" height="20" rx="10" fill="#22d3ee" opacity="0.7" />
      <rect x="228" width="76" height="20" rx="10" fill="#7c3aed" opacity="0.7" />
    </g>
  </g>
  <g transform="translate(150 388)">
    <rect width="212" height="68" rx="26" fill="rgba(15, 23, 42, 0.7)" />
    <rect x="20" y="22" width="72" height="24" rx="12" fill="#22d3ee" />
    <rect x="104" y="22" width="88" height="24" rx="12" fill="#7c3aed" opacity="0.75" />
  </g>
</svg>
