<svg xmlns="http://www.w3.org/2000/svg" viewBox="0 0 512 512" role="img" aria-labelledby="title desc">
  <title id="title">Future Launches</title>
  <desc id="desc">Abstract rocket and timeline depicting upcoming projects.</desc>
  <defs>
    <linearGradient id="futureBg" x1="0" y1="0" x2="1" y2="1">
      <stop offset="0%" stop-color="#0f172a" />
      <stop offset="100%" stop-color="#312e81" />
    </linearGradient>
    <linearGradient id="futureAccent" x1="0" y1="0" x2="1" y2="1">
      <stop offset="0%" stop-color="#22d3ee" />
      <stop offset="100%" stop-color="#7c3aed" />
    </linearGradient>
  </defs>
  <rect width="512" height="512" rx="40" fill="url(#futureBg)" />
  <g transform="translate(108 116)">
    <rect width="296" height="256" rx="30" fill="rgba(15, 23, 42, 0.78)" />
    <g transform="translate(36 36)">
      <rect width="80" height="12" rx="6" fill="#22d3ee" />
      <rect y="28" width="164" height="10" rx="5" fill="#7c3aed" opacity="0.75" />
      <rect y="52" width="200" height="10" rx="5" fill="#22d3ee" opacity="0.75" />
      <rect y="76" width="140" height="10" rx="5" fill="#38bdf8" opacity="0.7" />
    </g>
    <g transform="translate(202 36)">
      <rect width="86" height="86" rx="20" fill="rgba(34, 211, 238, 0.22)" />
      <path d="M43 16l24 44H19z" fill="url(#futureAccent)" />
      <rect x="32" y="74" width="22" height="50" rx="11" fill="#22d3ee" />
    </g>
    <g transform="translate(36 156)">
      <circle cx="16" cy="16" r="16" fill="#22d3ee" />
      <circle cx="16" cy="16" r="8" fill="#0f172a" />
      <rect x="36" y="12" width="170" height="8" rx="4" fill="#cbd5f5" />
    </g>
    <g transform="translate(36 196)">
      <circle cx="16" cy="16" r="16" fill="#7c3aed" />
      <circle cx="16" cy="16" r="8" fill="#0f172a" />
      <rect x="36" y="12" width="140" height="8" rx="4" fill="#cbd5f5" opacity="0.8" />
    </g>
  </g>
  <g transform="translate(156 382)">
    <rect width="200" height="72" rx="26" fill="rgba(15, 23, 42, 0.72)" />
    <rect x="20" y="22" width="100" height="24" rx="12" fill="url(#futureAccent)" />
    <rect x="132" y="26" width="48" height="20" rx="10" fill="#22d3ee" opacity="0.75" />
  </g>
</svg>
