<svg xmlns="http://www.w3.org/2000/svg" viewBox="0 0 512 512" role="img" aria-labelledby="title desc">
  <title id="title">LoginDB Admin Console</title>
  <desc id="desc">Admin dashboard with analytics and user table illustrating the LoginDB MERN project.</desc>
  <defs>
    <linearGradient id="logindbBg" x1="0" y1="0" x2="1" y2="1">
      <stop offset="0%" stop-color="#0f172a" />
      <stop offset="100%" stop-color="#1e3a8a" />
    </linearGradient>
    <linearGradient id="logindbCard" x1="0" y1="0" x2="1" y2="1">
      <stop offset="0%" stop-color="rgba(15, 23, 42, 0.92)" />
      <stop offset="100%" stop-color="rgba(30, 58, 138, 0.92)" />
    </linearGradient>
  </defs>
  <rect width="512" height="512" rx="40" fill="url(#logindbBg)" />
  <g transform="translate(72 96)">
    <rect width="368" height="288" rx="28" fill="url(#logindbCard)" />
    <g transform="translate(28 32)">
      <rect width="220" height="64" rx="18" fill="rgba(34, 211, 238, 0.22)" />
      <rect x="16" y="18" width="164" height="10" rx="5" fill="#bae6fd" />
      <rect x="16" y="38" width="120" height="10" rx="5" fill="#7dd3fc" />
      <circle cx="186" cy="32" r="12" fill="#22d3ee" />
    </g>
    <g transform="translate(260 32)">
      <rect width="80" height="26" rx="13" fill="#7c3aed" />
      <rect y="38" width="80" height="48" rx="16" fill="rgba(124, 58, 237, 0.2)" stroke="#7c3aed" stroke-width="2" />
      <text x="40" y="66" text-anchor="middle" font-family="Arial, sans-serif" font-size="16" font-weight="700" fill="#c4b5fd">92%</text>
    </g>
    <g transform="translate(28 124)">
      <rect width="312" height="136" rx="18" fill="rgba(15, 23, 42, 0.85)" />
      <rect x="18" y="20" width="120" height="12" rx="6" fill="#38bdf8" />
      <rect x="150" y="20" width="90" height="12" rx="6" fill="#7c3aed" />
      <rect x="252" y="20" width="42" height="12" rx="6" fill="#f97316" />
      <g transform="translate(18 52)" fill="#1d4ed8">
        <rect width="276" height="12" rx="6" />
        <rect y="30" width="240" height="12" rx="6" opacity="0.8" />
        <rect y="60" width="210" height="12" rx="6" opacity="0.6" />
      </g>
    </g>
  </g>
  <g transform="translate(140 380)">
    <rect width="232" height="72" rx="26" fill="rgba(15, 23, 42, 0.72)" />
    <rect x="22" y="22" width="112" height="24" rx="12" fill="#22d3ee" />
    <rect x="152" y="24" width="58" height="24" rx="12" fill="#7c3aed" opacity="0.8" />
  </g>
</svg>