<svg xmlns="http://www.w3.org/2000/svg" viewBox="0 0 512 512" role="img" aria-labelledby="title desc">
  <title id="title">Simon Says Memory Game</title>
  <desc id="desc">Quadrant buttons and streak tracker representing the Simon Says web game.</desc>
  <defs>
    <linearGradient id="simonBg" x1="0" y1="0" x2="1" y2="1">
      <stop offset="0%" stop-color="#1f2937" />
      <stop offset="100%" stop-color="#0f172a" />
    </linearGradient>
  </defs>
  <rect width="512" height="512" rx="40" fill="url(#simonBg)" />
  <g transform="translate(116 120)">
    <rect width="280" height="280" rx="36" fill="rgba(15, 23, 42, 0.85)" />
    <g transform="translate(34 34)">
      <rect width="96" height="96" rx="18" fill="#22d3ee" />
      <rect x="116" width="96" height="96" rx="18" fill="#ef4444" />
      <rect y="116" width="96" height="96" rx="18" fill="#facc15" />
      <rect x="116" y="116" width="96" height="96" rx="18" fill="#22c55e" />
      <circle cx="96" cy="96" r="34" fill="rgba(15, 23, 42, 0.85)" />
      <circle cx="96" cy="96" r="24" fill="#38bdf8" />
    </g>
    <g transform="translate(34 236)">
      <rect width="180" height="12" rx="6" fill="#38bdf8" />
      <rect y="24" width="220" height="12" rx="6" fill="#7c3aed" />
      <circle cx="220" cy="30" r="14" fill="#f97316" />
    </g>
  </g>
  <g transform="translate(150 380)">
    <rect width="212" height="70" rx="24" fill="rgba(15, 23, 42, 0.7)" />
    <rect x="20" y="22" width="120" height="24" rx="12" fill="#22d3ee" />
    <rect x="152" y="24" width="40" height="24" rx="12" fill="#facc15" />
  </g>
</svg>
